<?xml version="1.0" encoding="UTF-8"?>
<svg version="1.1" xmlns="http://www.w3.org/2000/svg" width="500" height="500">
<path d="M0 0 C16.08117738 -0.11682108 32.16221704 -0.20498188 48.24371624 -0.25906086 C55.71071752 -0.28483856 63.17745509 -0.31998029 70.64428711 -0.37719727 C77.15268356 -0.42704614 83.66088903 -0.45929419 90.16947109 -0.47044247 C93.61557299 -0.47695892 97.06112856 -0.49226388 100.50705528 -0.52865028 C104.3546609 -0.56894826 108.20173288 -0.56994846 112.04956055 -0.56762695 C113.19107574 -0.58560333 114.33259094 -0.60357971 115.50869751 -0.62210083 C124.10746261 -0.56582538 124.10746261 -0.56582538 127.18440247 2.47297668 C127.78354965 3.30689438 128.38269684 4.14081207 129 5 C129.33 5.33 129.66 5.66 130 6 C130.23052502 11.4631664 129.73187811 16.25137983 128.57885742 21.62182617 C128.42761917 22.33672714 128.27638092 23.05162811 128.12055969 23.78819275 C127.62380977 26.12497919 127.11514074 28.45896948 126.60546875 30.79296875 C126.25347583 32.42855695 125.90194631 34.06424494 125.55085754 35.70002747 C124.81560912 39.11623972 124.07435133 42.53107778 123.32885742 45.94506836 C122.37547163 50.31372561 121.43787625 54.68559707 120.50481701 59.05863476 C119.7830279 62.43242341 119.05257592 65.80429148 118.31954384 69.17565346 C117.97035134 70.78695886 117.62391419 72.39886401 117.28032494 74.01137352 C116.79882387 76.26506408 116.30561493 78.51588374 115.80932617 80.76635742 C115.53174973 82.04572678 115.25417328 83.32509613 114.96818542 84.64323425 C113.79515785 88.71020189 112.53574519 91.92593785 109.00708008 94.39379883 C108.26868896 94.74466553 107.53029785 95.09553223 106.76953125 95.45703125 C105.96708984 95.84697266 105.16464844 96.23691406 104.33789062 96.63867188 C103.08782227 97.2197168 103.08782227 97.2197168 101.8125 97.8125 C100.96751953 98.21919922 100.12253906 98.62589844 99.25195312 99.04492188 C97.17370832 100.04294904 95.08900075 101.02478619 93 102 C94.25256727 109.21590487 95.70196906 116.35274231 97.3828125 123.48046875 C97.60194305 124.41933426 97.82107361 125.35819977 98.04684448 126.32551575 C98.73704539 129.28010618 99.43095195 132.23381119 100.125 135.1875 C100.5979033 137.2089266 101.07056168 139.2304105 101.54296875 141.25195312 C102.69248731 146.16863468 103.84532658 151.08452662 105 156 C100.20380443 159.10150753 95.42750133 161.89178094 90.234375 164.296875 C89.33335052 164.71552826 89.33335052 164.71552826 88.41412354 165.14263916 C87.1617006 165.72312971 85.90808989 166.30106429 84.65332031 166.87646484 C82.73703841 167.75594876 80.82537645 168.64493516 78.9140625 169.53515625 C69.21623863 174.01883779 69.21623863 174.01883779 65 175 C60.31148611 158.94436968 55.96112065 142.80453003 51.71142578 126.62841797 C50.79593064 123.14500757 49.87255952 119.66373243 48.94754982 116.18283844 C48.22795612 113.469577 47.5138577 110.7548915 46.80128098 108.03977966 C46.29989774 106.13491543 45.79278778 104.23156148 45.28555298 102.32824707 C44.9845871 101.17514038 44.68362122 100.02203369 44.37353516 98.83398438 C44.1073941 97.82476929 43.84125305 96.8155542 43.56704712 95.77575684 C43.01965212 93.09619927 42.89043762 90.72531068 43 88 C43.53778076 87.73372803 44.07556152 87.46745605 44.62963867 87.19311523 C47.15006368 85.94352439 49.66877584 84.6905154 52.1875 83.4375 C53.4549707 82.81004883 53.4549707 82.81004883 54.74804688 82.16992188 C56.53260822 81.28098308 58.30655294 80.37049612 60.07080078 79.44189453 C63 78 63 78 66.40966797 76.75732422 C72.70648081 74.2150618 72.70648081 74.2150618 76.98202515 69.14620972 C78.99525007 63.68324531 79.84738901 57.97919308 80.75 52.25 C81.06250096 50.52378876 81.38016873 48.7985045 81.703125 47.07421875 C82.28728907 43.92931448 82.83907589 40.7822003 83.35839844 37.62597656 C84 34 84 34 85 31 C83.79670044 31.05329468 83.79670044 31.05329468 82.5690918 31.10766602 C78.94211861 31.26506346 75.31484314 31.41388351 71.6875 31.5625 C70.42486328 31.61857422 69.16222656 31.67464844 67.86132812 31.73242188 C66.65283203 31.78076172 65.44433594 31.82910156 64.19921875 31.87890625 C63.08377686 31.9260376 61.96833496 31.97316895 60.8190918 32.02172852 C58 32 58 32 55 31 C54.87238281 32.13912842 54.74476563 33.27825684 54.61328125 34.4519043 C54.04906062 38.95202081 53.16029245 43.34227357 52.1875 47.76953125 C51.92682739 48.97375984 51.92682739 48.97375984 51.66088867 50.20231628 C51.29608927 51.88417955 50.9296128 53.56567987 50.56152344 55.24682617 C49.99794294 57.82189899 49.43996651 60.39813926 48.8828125 62.97460938 C48.52636757 64.6146542 48.16960792 66.25463066 47.8125 67.89453125 C47.64580811 68.66328079 47.47911621 69.43203033 47.30737305 70.22407532 C45.3646676 79.0756954 45.3646676 79.0756954 40.5625 82.1875 C39.75941406 82.71730469 38.95632813 83.24710937 38.12890625 83.79296875 C36 85 36 85 34 85 C34.37253906 86.09957031 34.74507813 87.19914062 35.12890625 88.33203125 C35.60784019 89.82517825 36.08564388 91.31868812 36.5625 92.8125 C36.80935547 93.53115234 37.05621094 94.24980469 37.31054688 94.99023438 C40.33881666 104.67216734 37.93730158 114.26600965 35.71484375 123.91796875 C35.49429825 124.90122635 35.27375275 125.88448395 35.04652405 126.89753723 C34.35004455 129.99570738 33.64395702 133.09159149 32.9375 136.1875 C32.45964556 138.30519403 31.98242625 140.42303147 31.50585938 142.54101562 C30.34573538 147.69600137 29.17260448 152.84777598 28 158 C14.47 158 0.94 158 -13 158 C-10.75062304 144.50373823 -10.75062304 144.50373823 -9.70755005 139.92776489 C-9.47183792 138.88499893 -9.23612579 137.84223297 -8.99327087 136.76786804 C-8.61592552 135.12151115 -8.61592552 135.12151115 -8.23095703 133.44189453 C-7.67194947 130.97496738 -7.11304499 128.50801686 -6.55422974 126.04104614 C-6.25820093 124.73919652 -5.96211996 123.43735875 -5.66598892 122.13553238 C-4.74380341 118.07677721 -3.83150541 114.01583889 -2.92160034 109.95431519 C-2.76725875 109.26550676 -2.61291716 108.57669832 -2.45389855 107.86701691 C-2.13874805 106.46027879 -1.82363735 105.05353174 -1.50856566 103.64677596 C0.60512523 94.20942723 2.72362085 84.77334339 4.87597656 75.34472656 C6.33420027 68.95650012 7.77443745 62.56451645 9.19380486 56.16754043 C9.9437885 52.79071542 10.70275264 49.41649276 11.48376083 46.04669571 C12.35246336 42.29765896 13.18146859 38.54045887 14.00732422 34.78173828 C14.27103317 33.67202164 14.53474213 32.56230499 14.80644226 31.41896057 C16.07260307 26.18921003 16.07260307 26.18921003 15.28290558 21.01642704 C14.14257825 19.1780575 14.14257825 19.1780575 12 17 C11.48663086 16.29576904 10.97326172 15.59153809 10.44433594 14.8659668 C9.96254883 14.23343994 9.48076172 13.60091309 8.984375 12.94921875 C8.19160156 11.90217773 8.19160156 11.90217773 7.3828125 10.83398438 C6.2791321 9.38309351 5.17495215 7.93258254 4.0703125 6.48242188 C3.54695313 5.79083984 3.02359375 5.09925781 2.484375 4.38671875 C2.00709961 3.75983154 1.52982422 3.13294434 1.03808594 2.48706055 C0 1 0 1 0 0 Z " fill="#4337C8" transform="translate(246,145)"/>
<path d="M0 0 C4.14402667 -0.19906641 8.28546488 -0.3435041 12.43286133 -0.43945312 C13.84058131 -0.47947543 15.24797305 -0.53391768 16.65454102 -0.60351562 C28.08327857 -1.1544934 28.08327857 -1.1544934 32.14013672 1.2890625 C33.77734375 3.09375 33.77734375 3.09375 35.1240387 5.23904419 C36.60837815 7.4236285 38.05313491 9.21723566 39.81654358 11.15475464 C48.37955102 20.92086239 48.37955102 20.92086239 48.29820251 27.08221436 C47.78487487 31.58646458 46.53287132 35.88196591 45.28125 40.2265625 C44.86287878 41.87462385 44.45188258 43.5245724 44.04772949 45.17617798 C43.18633267 48.66832705 42.29219527 52.14967054 41.375 55.62756348 C39.2815698 63.66944923 37.5955117 71.80037962 35.86444092 79.92623138 C34.89504514 84.4511563 33.89610479 88.96952099 32.8984375 93.48828125 C32.50091108 95.29246604 32.10345031 97.0966653 31.70605469 98.90087891 C31.40930847 100.2475061 31.40930847 100.2475061 31.10656738 101.62133789 C30.07237926 106.31628972 29.0401997 111.01168314 28.0078125 115.70703125 C26.00708886 124.80510198 24.00428125 133.90271239 22 143 C20.88212734 142.05349644 19.76591194 141.10503537 18.65039062 140.15576172 C18.02861938 139.62779999 17.40684814 139.09983826 16.76623535 138.55587769 C14.4970743 136.55697247 12.49514755 134.39559702 10.5 132.125 C9.736875 131.26132812 8.97375 130.39765625 8.1875 129.5078125 C7.1046875 128.26644531 7.1046875 128.26644531 6 127 C5.401875 126.31679688 4.80375 125.63359375 4.1875 124.9296875 C3.06596332 123.64718954 1.94744852 122.36204244 0.83203125 121.07421875 C-0.54459068 119.51561268 -1.9476517 117.98029544 -3.36328125 116.45703125 C-4.17152344 115.58433594 -4.97976562 114.71164062 -5.8125 113.8125 C-6.93591797 112.61560547 -6.93591797 112.61560547 -8.08203125 111.39453125 C-10 109 -10 109 -12 104 C-0.45 104 11.1 104 23 104 C23.33 84.53 23.66 65.06 24 45 C22.22625 49.455 20.4525 53.91 18.625 58.5 C13.21445668 72.05692212 7.64972156 85.54036922 2 99 C-7.24 99.33 -16.48 99.66 -26 100 C-23.4940625 102.6915625 -23.4940625 102.6915625 -20.9375 105.4375 C-18.94517377 107.61328714 -16.97019863 109.80416979 -15 112 C-13.84951172 113.28197266 -13.84951172 113.28197266 -12.67578125 114.58984375 C-12.04027344 115.34394531 -11.40476563 116.09804688 -10.75 116.875 C-10.18796875 117.53242188 -9.6259375 118.18984375 -9.046875 118.8671875 C-7.54743971 121.92200716 -8.25541789 123.69974931 -9 127 C-9.91326434 129.41873432 -10.85983445 131.75516251 -11.90625 134.11328125 C-12.19101196 134.76830124 -12.47577393 135.42332123 -12.76916504 136.09819031 C-13.36784759 137.47187313 -13.96974725 138.84415793 -14.57470703 140.21508789 C-15.50360143 142.32066356 -16.42251614 144.43037849 -17.33984375 146.54101562 C-17.92390729 147.87785417 -18.50852304 149.21445161 -19.09375 150.55078125 C-19.36981079 151.18301102 -19.64587158 151.81524078 -19.93029785 152.46662903 C-21.88295829 156.88295829 -21.88295829 156.88295829 -23 158 C-24.35094982 158.09268999 -25.70667091 158.11747326 -27.06079102 158.11352539 C-27.92160782 158.11344986 -28.78242462 158.11337433 -29.66932678 158.11329651 C-30.60473801 158.10813522 -31.54014923 158.10297394 -32.50390625 158.09765625 C-33.45692123 158.0962413 -34.40993622 158.09482635 -35.39183044 158.09336853 C-38.44875165 158.08775152 -41.50560077 158.07519616 -44.5625 158.0625 C-46.62955624 158.05748719 -48.69661362 158.05292391 -50.76367188 158.04882812 C-55.84247588 158.03777656 -60.9212257 158.02050055 -66 158 C-65.35732997 154.13736346 -64.21419922 150.8102719 -62.69140625 147.20703125 C-62.2010791 146.04139648 -61.71075195 144.87576172 -61.20556641 143.67480469 C-60.65804655 142.38729793 -60.1103517 141.09986558 -59.5625 139.8125 C-58.98588501 138.44836066 -58.40955838 137.0840994 -57.83349609 135.71972656 C-49.32069451 115.58924179 -40.67019501 95.51673729 -32.03857422 75.43701172 C-30.21203124 71.18768282 -28.3866264 66.93786685 -26.5625 62.6875 C-26.27005402 62.00613983 -25.97760803 61.32477966 -25.67630005 60.62277222 C-17.02461133 40.45470537 -8.51919634 20.22428764 0 0 Z " fill="#4337C8" transform="translate(210,145)"/>
<path d="M0 0 C6.93 0 13.86 0 21 0 C21 2.31 21 4.62 21 7 C21.66 4.69 22.32 2.38 23 0 C24.65 0 26.3 0 28 0 C27.34 3.96 26.68 7.92 26 12 C24.68 12.33 23.36 12.66 22 13 C21.67 13.99 21.34 14.98 21 16 C19.35 16 17.7 16 16 16 C16.33 15.01 16.66 14.02 17 13 C16.01 13 15.02 13 14 13 C14.33 9.37 14.66 5.74 15 2 C13.38262517 6.62107093 12.14751403 11.2460133 11 16 C9.35 16 7.7 16 6 16 C6 14.02 6 12.04 6 10 C5.34 11.98 4.68 13.96 4 16 C2.35 16 0.7 16 -1 16 C-0.67 10.72 -0.34 5.44 0 0 Z M7 1 C6.67 2.65 6.34 4.3 6 6 C6.66 6 7.32 6 8 6 C8.33 4.68 8.66 3.36 9 2 C8.34 1.67 7.68 1.34 7 1 Z " fill="#362FB2" transform="translate(277,306)"/>
<path d="M0 0 C2.64 0 5.28 0 8 0 C8.33 2.64 8.66 5.28 9 8 C10.01540112 3.89776415 10.01540112 3.89776415 9 0 C13.62 0 18.24 0 23 0 C22.82574635 5.92462418 22.82574635 5.92462418 22 9 C18.85230052 11.80555823 17.23606876 13 13 13 C13 13.99 13 14.98 13 16 C11.20866022 16.05391993 9.41686101 16.09275571 7.625 16.125 C6.62726563 16.14820313 5.62953125 16.17140625 4.6015625 16.1953125 C2 16 2 16 0 14 C-0.33 14.66 -0.66 15.32 -1 16 C-2.98 16 -4.96 16 -7 16 C-4.69 10.72 -2.38 5.44 0 0 Z M15 4 C15.33 5.32 15.66 6.64 16 8 C16.33 6.68 16.66 5.36 17 4 C16.34 4 15.68 4 15 4 Z M2 7 C3 10 3 10 3 10 Z " fill="#332DA6" transform="translate(253,306)"/>
<path d="M0 0 C8.91 0 17.82 0 27 0 C26.67 1.65 26.34 3.3 26 5 C24.35 5 22.7 5 21 5 C20.34 8.63 19.68 12.26 19 16 C17.35 16 15.7 16 14 16 C14.14308594 14.73542969 14.14308594 14.73542969 14.2890625 13.4453125 C14.39992187 12.34960938 14.51078125 11.25390625 14.625 10.125 C14.74101562 9.03445313 14.85703125 7.94390625 14.9765625 6.8203125 C14.98429687 5.88960938 14.99203125 4.95890625 15 4 C14.34 3.34 13.68 2.68 13 2 C11.68 6.62 10.36 11.24 9 16 C5.04 16 1.08 16 -3 16 C-2.01 10.72 -1.02 5.44 0 0 Z M5 4 C3.52952664 7.91063224 3.52952664 7.91063224 3 12 C3.66 12 4.32 12 5 12 C5.33 9.36 5.66 6.72 6 4 C5.67 4 5.34 4 5 4 Z " fill="#312BB3" transform="translate(177,306)"/>
<path d="M0 0 C4.62 0 9.24 0 14 0 C13.125 8.875 13.125 8.875 12 10 C11.95919217 11.99958364 11.95745644 14.00045254 12 16 C10.35 16.66 8.7 17.32 7 18 C6.67 16.35 6.34 14.7 6 13 C5.34 13 4.68 13 4 13 C4 14.32 4 15.64 4 17 C2.35 17 0.7 17 -1 17 C-0.56420325 12.82747794 -0.12584249 8.69213368 0.625 4.5625 C1.24699529 2.01731328 1.24699529 2.01731328 0 0 Z M6 4 C6.33 5.32 6.66 6.64 7 8 C7.33 6.68 7.66 5.36 8 4 C7.34 4 6.68 4 6 4 Z " fill="#312BB2" transform="translate(233,306)"/>
<path d="M0 0 C4.62 0 9.24 0 14 0 C13.01 5.28 12.02 10.56 11 16 C9.35 16 7.7 16 6 16 C6 14.02 6 12.04 6 10 C5.01 11.98 4.02 13.96 3 16 C1.35 16 -0.3 16 -2 16 C-1.855625 15.34773438 -1.71125 14.69546875 -1.5625 14.0234375 C-1.376875 13.14945312 -1.19125 12.27546875 -1 11.375 C-0.814375 10.51648438 -0.62875 9.65796875 -0.4375 8.7734375 C0.15581969 5.4801699 0.15581969 5.4801699 0 0 Z M6 1 C6 2.65 6 4.3 6 6 C6.66 6 7.32 6 8 6 C8 4.35 8 2.7 8 1 C7.34 1 6.68 1 6 1 Z " fill="#2E29B4" transform="translate(161,306)"/>
<path d="M0 0 C3.63 0 7.26 0 11 0 C10.54065039 5.66531181 10.10318672 10.67192698 8 16 C4.37 16 0.74 16 -3 16 C-2.54065039 10.33468819 -2.10318672 5.32807302 0 0 Z M4 4 C3.34 6.64 2.68 9.28 2 12 C2.66 12 3.32 12 4 12 C4.66 9.36 5.32 6.72 6 4 C5.34 4 4.68 4 4 4 Z " fill="#342DAE" transform="translate(206,306)"/>
<path d="M0 0 C3.96 0 7.92 0 12 0 C11.625 2.9375 11.625 2.9375 11 6 C10.01 6.495 10.01 6.495 9 7 C9.33 7.33 9.66 7.66 10 8 C9.82364548 10.69082872 9.38164079 13.32851446 9 16 C5.04 16 1.08 16 -3 16 C-1.125 4.5 -1.125 4.5 0 0 Z M4 4 C4 4.66 4 5.32 4 6 C5.32 5.67 6.64 5.34 8 5 C6.68 4.67 5.36 4.34 4 4 Z M3 9 C3 9.99 3 10.98 3 12 C3.66 12 4.32 12 5 12 C4.67 11.01 4.34 10.02 4 9 C3.67 9 3.34 9 3 9 Z " fill="#2A27B3" transform="translate(220,306)"/>
<path d="M0 0 C0.33 0 0.66 0 1 0 C1.12592992 7.55579515 1.12592992 7.55579515 0.4296875 10.01171875 C-0.2167481 13.00295259 0.79819859 15.24770098 1.72265625 18.09765625 C2 20 2 20 0 23 C-0.36844508 25.8086043 -0.36844508 25.8086043 -0.4140625 28.98046875 C-0.45273438 30.14384766 -0.49140625 31.30722656 -0.53125 32.50585938 C-0.5621875 33.72080078 -0.593125 34.93574219 -0.625 36.1875 C-0.68300781 38.02731445 -0.68300781 38.02731445 -0.7421875 39.90429688 C-0.83656103 42.93604656 -0.92214549 45.96778841 -1 49 C-0.34 49 0.32 49 1 49 C1 49.66 1 50.32 1 51 C0.34 51 -0.32 51 -1 51 C-1.33 58.26 -1.66 65.52 -2 73 C-2.66 72.67 -3.32 72.34 -4 72 C-3.67 52.53 -3.34 33.06 -3 13 C-4.32 16.3 -5.64 19.6 -7 23 C-7.33 23 -7.66 23 -8 23 C-8.22822613 19.04170312 -7.55050009 16.32148459 -6 12.6875 C-5.62875 11.80449219 -5.2575 10.92148438 -4.875 10.01171875 C-4.58625 9.34785156 -4.2975 8.68398437 -4 8 C-3.01 8 -2.02 8 -1 8 C-1.020625 6.865625 -1.04125 5.73125 -1.0625 4.5625 C-1 1 -1 1 0 0 Z " fill="#3B32B6" transform="translate(237,177)"/>
<path d="M0 0 C4.62 0 9.24 0 14 0 C13.82574635 5.92462418 13.82574635 5.92462418 13 9 C9.85230052 11.80555823 8.23606876 13 4 13 C4 13.99 4 14.98 4 16 C2.35 16 0.7 16 -1 16 C-0.84402344 15.01257813 -0.68804687 14.02515625 -0.52734375 13.0078125 C-0.33269531 11.72648437 -0.13804687 10.44515625 0.0625 9.125 C0.25972656 7.84882813 0.45695313 6.57265625 0.66015625 5.2578125 C1.28280729 2.11761458 1.28280729 2.11761458 0 0 Z M6 4 C6.33 5.32 6.66 6.64 7 8 C7.33 6.68 7.66 5.36 8 4 C7.34 4 6.68 4 6 4 Z " fill="#362FB2" transform="translate(146,306)"/>
<path d="M0 0 C8.91 0 17.82 0 27 0 C26.67 1.65 26.34 3.3 26 5 C24.35 5 22.7 5 21 5 C20.34 8.63 19.68 12.26 19 16 C17.35 16 15.7 16 14 16 C14.14308594 14.73542969 14.14308594 14.73542969 14.2890625 13.4453125 C14.39992187 12.34960938 14.51078125 11.25390625 14.625 10.125 C14.74101562 9.03445313 14.85703125 7.94390625 14.9765625 6.8203125 C14.98429688 5.88960938 14.99203125 4.95890625 15 4 C14.34 3.34 13.68 2.68 13 2 C12.34 4.31 11.68 6.62 11 9 C10.67 9 10.34 9 10 9 C10 6.36 10 3.72 10 1 C7.36 1 4.72 1 2 1 C2 1.99 2 2.98 2 4 C1.34 4 0.68 4 0 4 C0 2.68 0 1.36 0 0 Z " fill="#3530A6" transform="translate(177,306)"/>
<path d="M0 0 C40.26 0 80.52 0 122 0 C122 0.33 122 0.66 122 1 C121.09966805 1.00496522 121.09966805 1.00496522 120.18114758 1.01003075 C105.58425673 1.09121007 90.98746285 1.18328581 76.39071941 1.28752708 C69.33187215 1.33767371 62.27303662 1.38411633 55.21411133 1.421875 C48.40596887 1.45830257 41.59795942 1.50500475 34.78992653 1.55806351 C32.18834462 1.57664219 29.5867355 1.59173719 26.98511314 1.60334396 C23.35021259 1.62014689 19.71560468 1.64916777 16.08081055 1.68115234 C14.99755997 1.68331253 13.91430939 1.68547272 12.79823303 1.68769836 C11.31536301 1.70444359 11.31536301 1.70444359 9.80253601 1.7215271 C8.51248673 1.72982324 8.51248673 1.72982324 7.19637585 1.73828697 C4.71003315 1.86660986 4.71003315 1.86660986 2 4 C1.34 2.68 0.68 1.36 0 0 Z " fill="#372FC0" transform="translate(246,145)"/>
<path d="M0 0 C0.66 0.33 1.32 0.66 2 1 C2 2.65 2 4.3 2 6 C1.01 6.33 0.02 6.66 -1 7 C-1 7.99 -1 8.98 -1 10 C12.2 10 25.4 10 39 10 C39 9.01 39 8.02 39 7 C39.66 7 40.32 7 41 7 C40.34 8.65 39.68 10.3 39 12 C24.81 12 10.62 12 -4 12 C-3.07988583 7.39942914 -1.89559434 4.20327441 0 0 Z " fill="#3E36A8" transform="translate(148,291)"/>
<path d="M0 0 C4.95 0 9.9 0 15 0 C14.67 0.99 14.34 1.98 14 3 C13.34 3 12.68 3 12 3 C12 3.66 12 4.32 12 5 C11.01 5 10.02 5 9 5 C9.33 6.32 9.66 7.64 10 9 C9.01 9.33 8.02 9.66 7 10 C6.67 10.66 6.34 11.32 6 12 C5.38125 11.360625 4.7625 10.72125 4.125 10.0625 C2.17402388 7.96116416 2.17402388 7.96116416 0 7 C-1.26229508 2.52459016 -1.26229508 2.52459016 0 0 Z " fill="#4337CB" transform="translate(206,251)"/>
<path d="M0 0 C4.14402667 -0.19906641 8.28546488 -0.3435041 12.43286133 -0.43945312 C13.84058131 -0.47947543 15.24797305 -0.53391768 16.65454102 -0.60351562 C28.27109671 -1.16354809 28.27109671 -1.16354809 32.3137207 1.55712891 C34.11665353 3.60520496 35.54817435 5.692684 37 8 C38.03807357 9.24985661 39.09115535 10.48742805 40.16015625 11.7109375 C47.85827863 21.24566127 47.85827863 21.24566127 48.2578125 26.19140625 C47.74452799 28.66290635 47.12029962 30.74347233 46 33 C45.67 33 45.34 33 45 33 C45.10441406 32.33355469 45.20882812 31.66710937 45.31640625 30.98046875 C45.87384296 24.65400452 45.04501015 21.2970503 40.9375 16.375 C40.18339844 15.55773437 39.42929688 14.74046875 38.65234375 13.8984375 C36 11 36 11 34.65454102 8.6809082 C32.96270337 5.9358915 31.52757687 4.01865986 29 2 C24.00130984 0.89919332 19.13738169 1.14482456 14.0625 1.4375 C12.69739796 1.48270635 11.33215175 1.52376028 9.96679688 1.56054688 C6.64083291 1.66631958 3.32228304 1.81399794 0 2 C0 1.34 0 0.68 0 0 Z " fill="#3D359F" transform="translate(210,145)"/>
<path d="M0 0 C1.65 0 3.3 0 5 0 C6.54200567 3.08401134 5.22665982 5.57760932 4.375 8.80859375 C3.79392636 11.16796663 3.79392636 11.16796663 5 14 C4.01 14 3.02 14 2 14 C1.34 13.01 0.68 12.02 0 11 C-0.99 10.67 -1.98 10.34 -3 10 C-3 11.32 -3 12.64 -3 14 C-3.66 14 -4.32 14 -5 14 C-4.67 11.03 -4.34 8.06 -4 5 C-3.01 5 -2.02 5 -1 5 C-0.67 3.35 -0.34 1.7 0 0 Z M1 6 C2 9 2 9 2 9 Z " fill="#352EBE" transform="translate(254,307)"/>
<path d="M0 0 C0.66 0 1.32 0 2 0 C0.43940835 4.89809458 -1.4151768 9.62749724 -3.375 14.375 C-3.66632813 15.09171875 -3.95765625 15.8084375 -4.2578125 16.546875 C-5.73377907 20.13321482 -7.2892044 23.62637194 -9.06640625 27.07421875 C-11.53692629 31.91729816 -13.08178558 36.95122558 -14.75390625 42.12109375 C-15.16511719 43.07113281 -15.57632813 44.02117187 -16 45 C-17.485 45.495 -17.485 45.495 -19 46 C-17.05504421 39.8504799 -14.79619573 33.93238802 -12.20703125 28.02734375 C-11.85613937 27.21882462 -11.5052475 26.41030548 -11.14372253 25.57728577 C-10.03687574 23.02912408 -8.92478979 20.48328976 -7.8125 17.9375 C-7.05498888 16.19611561 -6.29782424 14.45458045 -5.54101562 12.71289062 C-3.69800667 8.47350899 -1.85029978 4.23620429 0 0 Z " fill="#3F36A8" transform="translate(177,223)"/>
<path d="M0 0 C2.0625 0.4375 2.0625 0.4375 4 1 C3.34 2.32 2.68 3.64 2 5 C3.32 4.34 4.64 3.68 6 3 C3.41874331 11.17397951 0.22988119 19.06640834 -3 27 C-4.0625 25.1875 -4.0625 25.1875 -5 23 C-4.505 21.515 -4.505 21.515 -4 20 C-3.34 20 -2.68 20 -2 20 C-0.48046291 15.08417923 -0.48046291 15.08417923 0 10 C-0.66 9.67 -1.32 9.34 -2 9 C-1.125 1.125 -1.125 1.125 0 0 Z " fill="#3F33C1" transform="translate(218,210)"/>
<path d="M0 0 C0.66 0 1.32 0 2 0 C0.52601868 9.6795309 -1.50006352 19.19851786 -3.625 28.75 C-3.9534068 30.23691696 -4.28153357 31.72389579 -4.609375 33.2109375 C-5.40303177 36.80800883 -6.20044395 40.40423475 -7 44 C-7.33 44 -7.66 44 -8 44 C-8 40.7 -8 37.4 -8 34 C-8.99 34 -9.98 34 -11 34 C-11 33.34 -11 32.68 -11 32 C-9.68 32 -8.36 32 -7 32 C-6.80664062 30.85660156 -6.61328125 29.71320313 -6.4140625 28.53515625 C-6.15150234 27.04418963 -5.88845639 25.55330851 -5.625 24.0625 C-5.49867188 23.30775391 -5.37234375 22.55300781 -5.2421875 21.77539062 C-4.89452437 19.83716865 -4.45356496 17.91620795 -4 16 C-3.34 15.67 -2.68 15.34 -2 15 C-1.56785888 13.07719368 -1.56785888 13.07719368 -1.4375 10.8125 C-1.11159048 7.16929713 -0.64673491 3.60323738 0 0 Z " fill="#3D33A9" transform="translate(253,180)"/>
<path d="M0 0 C1.51331197 3.94777034 0.48972836 7.42779808 -0.43359375 11.390625 C-0.59038101 12.09523865 -0.74716827 12.79985229 -0.90870667 13.52581787 C-1.40991516 15.76919369 -1.92351611 18.00952042 -2.4375 20.25 C-2.78011861 21.7732529 -3.12192497 23.29668875 -3.46289062 24.8203125 C-4.29919386 28.54906095 -5.14661999 32.27512439 -6 36 C-6.33 36 -6.66 36 -7 36 C-8.2624418 28.88441896 -7.69603778 23.72674774 -5 17 C-4.67 16.67 -4.34 16.34 -4 16 C-2.66760162 10.16004744 -2.66760162 10.16004744 -5 5 C-4.360625 4.731875 -3.72125 4.46375 -3.0625 4.1875 C-0.66868314 3.11332248 -0.66868314 3.11332248 0 0 Z " fill="#3830A6" transform="translate(244,225)"/>
<path d="M0 0 C0.66 0 1.32 0 2 0 C4.29342747 5.89738492 5.34548714 10.66606918 5 17 C5.66 17.33 6.32 17.66 7 18 C9.33683045 23.59552979 10.39315606 28.97160702 10 35 C9.34 34.67 8.68 34.34 8 34 C7.26344234 31.76937872 6.63464401 29.50292779 6.0546875 27.2265625 C5.87994904 26.54701508 5.70521057 25.86746765 5.525177 25.16732788 C5.15665225 23.72744063 4.79208581 22.28653544 4.43115234 20.84472656 C3.87847686 18.6388769 3.31338402 16.43650612 2.74609375 14.234375 C0 3.45491854 0 3.45491854 0 0 Z " fill="#3C34AB" transform="translate(293,250)"/>
<path d="M0 0 C3.96 0 7.92 0 12 0 C12 0.99 12 1.98 12 3 C9.03 3 6.06 3 3 3 C2.67 5.97 2.34 8.94 2 12 C1.01 12 0.02 12 -1 12 C-2.45606519 7.47907032 -1.27032841 4.48351204 0 0 Z " fill="#362FB2" transform="translate(220,306)"/>
<path d="M0 0 C4.62 0 9.24 0 14 0 C13.01 5.28 12.02 10.56 11 16 C9.35 16 7.7 16 6 16 C6.33 14.68 6.66 13.36 7 12 C7 12.99 7 13.98 7 15 C7.99 15 8.98 15 10 15 C10 12.03 10 9.06 10 6 C10.66 6 11.32 6 12 6 C12 4.35 12 2.7 12 1 C11.01 1 10.02 1 9 1 C9 2.65 9 4.3 9 6 C8.67 6 8.34 6 8 6 C8 4.35 8 2.7 8 1 C7.34 1 6.68 1 6 1 C6 2.65 6 4.3 6 6 C5.67 5.34 5.34 4.68 5 4 C4.01 4 3.02 4 2 4 C2 3.34 2 2.68 2 2 C1.34 2 0.68 2 0 2 C0 1.34 0 0.68 0 0 Z " fill="#332EA0" transform="translate(161,306)"/>
<path d="M0 0 C15.51 0 31.02 0 47 0 C47 0.33 47 0.66 47 1 C43.56284564 1.17433833 40.12531759 1.33927579 36.6875 1.5 C35.13724121 1.57263062 35.13724121 1.57263062 33.55566406 1.64672852 C25.98065227 1.97600111 18.43424701 2.07274582 10.85424805 1.875 C6.99828735 1.81376052 5.29472864 1.80351424 2 4 C1.34 2.68 0.68 1.36 0 0 Z " fill="#342CB4" transform="translate(246,145)"/>
<path d="M0 0 C0.66 0 1.32 0 2 0 C1.979375 0.804375 1.95875 1.60875 1.9375 2.4375 C1.70366379 4.93354885 1.70366379 4.93354885 3 6 C3 5.01 3 4.02 3 3 C4.65 2.34 6.3 1.68 8 1 C7.33333333 3.66666667 6.66666667 6.33333333 6 9 C3.36 9 0.72 9 -2 9 C-2 7.35 -2 5.7 -2 4 C-1.34 3.67 -0.68 3.34 0 3 C0 2.01 0 1.02 0 0 Z " fill="#2D27B4" transform="translate(207,312)"/>
<path d="M0 0 C0.66 0 1.32 0 2 0 C2.185625 1.5778125 2.185625 1.5778125 2.375 3.1875 C2.82992066 6.8852232 2.82992066 6.8852232 4.125 9.6875 C5.11341176 12.29973109 4.95398577 13.42423842 4 16 C2.35 16 0.7 16 -1 16 C-0.67 10.72 -0.34 5.44 0 0 Z " fill="#322EAA" transform="translate(277,306)"/>
<path d="M0 0 C0.99 0 1.98 0 3 0 C3 1.65 3 3.3 3 5 C2.34 5 1.68 5 1 5 C1 7.97 1 10.94 1 14 C0.01 14 -0.98 14 -2 14 C-2.66 11.03 -3.32 8.06 -4 5 C-2.68 5 -1.36 5 0 5 C0 3.35 0 1.7 0 0 Z " fill="#2F27C1" transform="translate(170,307)"/>
<path d="M0 0 C0.99 0.33 1.98 0.66 3 1 C-6.405 5.95 -6.405 5.95 -16 11 C-16 13.31 -16 15.62 -16 18 C-16.66 17.67 -17.32 17.34 -18 17 C-18.4375 13.8125 -18.4375 13.8125 -18 10 C-14.15598337 5.56821325 -8.36601812 3.87810634 -3 2 C-2.01 1.34 -1.02 0.68 0 0 Z " fill="#4137AB" transform="translate(355,236)"/>
<path d="M0 0 C0.33 0 0.66 0 1 0 C1 2.64 1 5.28 1 8 C0.34 8 -0.32 8 -1 8 C-1 9.98 -1 11.96 -1 14 C-2.65 14 -4.3 14 -6 14 C-6.33 13.34 -6.66 12.68 -7 12 C-6.01 12 -5.02 12 -4 12 C-4 10.35 -4 8.7 -4 7 C-3.34 7 -2.68 7 -2 7 C-1.855625 6.030625 -1.71125 5.06125 -1.5625 4.0625 C-1 1 -1 1 0 0 Z " fill="#352DC2" transform="translate(186,307)"/>
<path d="M0 0 C1.51553092 3.97450493 0.49888623 7.20481149 -0.4375 11.25 C-0.72496094 12.51328125 -1.01242187 13.7765625 -1.30859375 15.078125 C-1.53675781 16.04234375 -1.76492188 17.0065625 -2 18 C-3.32 18 -4.64 18 -6 18 C-5.34 17.67 -4.68 17.34 -4 17 C-4.01160156 16.37351562 -4.02320313 15.74703125 -4.03515625 15.1015625 C-4.04417969 14.28429687 -4.05320312 13.46703125 -4.0625 12.625 C-4.07410156 11.81289063 -4.08570313 11.00078125 -4.09765625 10.1640625 C-4 8 -4 8 -3 6 C-2.34 6 -1.68 6 -1 6 C-1.020625 5.195625 -1.04125 4.39125 -1.0625 3.5625 C-1 1 -1 1 0 0 Z " fill="#3B32B5" transform="translate(278,276)"/>
<path d="M0 0 C0.33 0 0.66 0 1 0 C1.125 6.625 1.125 6.625 0 10 C0.66 10.33 1.32 10.66 2 11 C2 13 2 15 2 17 C0.35 17.33 -1.3 17.66 -3 18 C-2.41509121 11.85845775 -1.45933748 5.99320151 0 0 Z " fill="#3D33B3" transform="translate(244,250)"/>
<path d="M0 0 C0.66 0.33 1.32 0.66 2 1 C2.33333333 3 2.66666667 5 3 7 C3.66 7.33 4.32 7.66 5 8 C4.01 8.33 3.02 8.66 2 9 C1.26676204 11.01508358 1.26676204 11.01508358 1 13 C0.34 13 -0.32 13 -1 13 C-1.02686553 11.02090602 -1.04633375 9.04171029 -1.0625 7.0625 C-1.07410156 5.96035156 -1.08570313 4.85820312 -1.09765625 3.72265625 C-1 1 -1 1 0 0 Z " fill="#3931BD" transform="translate(148,308)"/>
<path d="M0 0 C0.33 0.66 0.66 1.32 1 2 C0.175 2.433125 -0.65 2.86625 -1.5 3.3125 C-2.7375 4.1478125 -2.7375 4.1478125 -4 5 C-4 5.99 -4 6.98 -4 8 C-4.31088368 9.67099977 -4.64080332 11.33871537 -5 13 C-5.66 13 -6.32 13 -7 13 C-8.125 9.25 -8.125 9.25 -7 7 C-7.99 6.34 -8.98 5.68 -10 5 C-6.7 3.35 -3.4 1.7 0 0 Z " fill="#3F36B6" transform="translate(309,223)"/>
<path d="M0 0 C1.01498547 3.17459631 0.94466465 5.30877671 0.22265625 8.546875 C0.03896484 9.39121094 -0.14472656 10.23554688 -0.33398438 11.10546875 C-0.53314453 11.97816406 -0.73230469 12.85085937 -0.9375 13.75 C-1.13279297 14.63816406 -1.32808594 15.52632812 -1.52929688 16.44140625 C-2.01161712 18.62949322 -2.50209032 20.8154173 -3 23 C-4.97168278 19.41382335 -5.0881758 17.66863191 -4.25 13.625 C-4.05019531 12.65949219 -3.85039062 11.69398438 -3.64453125 10.69921875 C-2.75332887 6.9669712 -1.71780899 3.43561799 0 0 Z " fill="#4035B0" transform="translate(363,210)"/>
<path d="M0 0 C0.66 0 1.32 0 2 0 C4.85842741 7.20820824 6.15657095 13.17145266 6 21 C4.56526071 18.3197178 3.60284301 15.85250923 2.9296875 12.890625 C2.75566406 12.13652344 2.58164062 11.38242187 2.40234375 10.60546875 C2.22832031 9.82816406 2.05429687 9.05085938 1.875 8.25 C1.60236328 7.06083984 1.60236328 7.06083984 1.32421875 5.84765625 C0.87824986 3.89947634 0.43850849 1.94987269 0 0 Z " fill="#3A30A7" transform="translate(305,297)"/>
<path d="M0 0 C0.66 0 1.32 0 2 0 C0.9413873 6.75710231 -0.22125844 13.39324562 -2 20 C-2.66 20 -3.32 20 -4 20 C-2.07289294 6.3667426 -2.07289294 6.3667426 0 0 Z " fill="#3C35AB" transform="translate(293,204)"/>
<path d="M0 0 C2.64 0 5.28 0 8 0 C8 0.99 8 1.98 8 3 C7.01 3.66 6.02 4.32 5 5 C4.34 6.32 3.68 7.64 3 9 C2.01 6.03 1.02 3.06 0 0 Z " fill="#3A31C4" transform="translate(192,307)"/>
<path d="M0 0 C1.07310858 3.27185553 0.89263102 5.42947592 0.0625 8.75 C-0.13214844 9.54921875 -0.32679688 10.3484375 -0.52734375 11.171875 C-0.68332031 11.77515625 -0.83929688 12.3784375 -1 13 C-2.14926266 12.04578192 -3.29430541 11.08647955 -4.4375 10.125 C-5.07558594 9.59132813 -5.71367187 9.05765625 -6.37109375 8.5078125 C-8 7 -8 7 -9 5 C-7.02 5.66 -5.04 6.32 -3 7 C-2.01 4.69 -1.02 2.38 0 0 Z " fill="#3F38A7" transform="translate(233,275)"/>
<path d="M0 0 C4.62 0 9.24 0 14 0 C13.67 1.32 13.34 2.64 13 4 C13 3.01 13 2.02 13 1 C12.34 1 11.68 1 11 1 C11 1.99 11 2.98 11 4 C10.34 4 9.68 4 9 4 C8.67 3.34 8.34 2.68 8 2 C7.34 3.98 6.68 5.96 6 8 C5.67 8 5.34 8 5 8 C5 5.69 5 3.38 5 1 C3.68 1.33 2.36 1.66 1 2 C0.67 1.34 0.34 0.68 0 0 Z " fill="#3D36A9" transform="translate(284,306)"/>
<path d="M0 0 C0.33 0.66 0.66 1.32 1 2 C0.09239638 4.59732225 -0.87067892 7.09450975 -1.9375 9.625 C-2.22818359 10.33140625 -2.51886719 11.0378125 -2.81835938 11.765625 C-3.53867488 13.51327573 -4.26845694 15.25701915 -5 17 C-6.0625 15.1875 -6.0625 15.1875 -7 13 C-6.67 12.01 -6.34 11.02 -6 10 C-5.34 10 -4.68 10 -4 10 C-3.71125 8.906875 -3.4225 7.81375 -3.125 6.6875 C-2 3 -2 3 0 0 Z " fill="#3D31AD" transform="translate(220,220)"/>
<path d="M0 0 C3.98096843 7.1088722 4.16810792 13.15473462 3 21 C2.67 21 2.34 21 2 21 C2.04125 19.96875 2.0825 18.9375 2.125 17.875 C2.19156258 14.0947903 2.19156258 14.0947903 1 11.0625 C-0.26839428 7.17804251 -0.1404176 4.07211051 0 0 Z " fill="#3A32AB" transform="translate(281,236)"/>
<path d="M0 0 C1.06140282 3.18420845 0.95892549 4.08459109 0.22265625 7.23046875 C-0.05288086 8.43413086 -0.05288086 8.43413086 -0.33398438 9.66210938 C-0.63272461 10.91217773 -0.63272461 10.91217773 -0.9375 12.1875 C-1.13279297 13.03248047 -1.32808594 13.87746094 -1.52929688 14.74804688 C-2.01241264 16.833693 -2.50527904 18.91707614 -3 21 C-3.33 21 -3.66 21 -4 21 C-3.40546697 6.21867882 -3.40546697 6.21867882 0 0 Z " fill="#3E38AC" transform="translate(368,188)"/>
<path d="M0 0 C0.66 0 1.32 0 2 0 C1.67 3.3 1.34 6.6 1 10 C0.67 9.01 0.34 8.02 0 7 C-1.98 7.99 -1.98 7.99 -4 9 C-3.625 6.5625 -3.625 6.5625 -3 4 C-2.34 3.67 -1.68 3.34 -1 3 C-0.67 2.01 -0.34 1.02 0 0 Z " fill="#3430A5" transform="translate(215,306)"/>
<path d="M0 0 C3.3 0 6.6 0 10 0 C10.33 1.32 10.66 2.64 11 4 C9.54054712 3.91291331 8.08234132 3.80473093 6.625 3.6875 C5.81289062 3.62949219 5.00078125 3.57148438 4.1640625 3.51171875 C2 3 2 3 0 0 Z " fill="#322BC5" transform="translate(234,307)"/>
<path d="M0 0 C1.98 0 3.96 0 6 0 C6 0.99 6 1.98 6 3 C5.34 3 4.68 3 4 3 C4 4.65 4 6.3 4 8 C3.01 7.67 2.02 7.34 1 7 C0.67 4.69 0.34 2.38 0 0 Z " fill="#352BC4" transform="translate(269,307)"/>
<path d="M0 0 C4.62 0 9.24 0 14 0 C13.67 1.32 13.34 2.64 13 4 C13 3.01 13 2.02 13 1 C8.35413108 1.48484276 8.35413108 1.48484276 4 3 C4 3.66 4 4.32 4 5 C3.34 5 2.68 5 2 5 C1.34 3.35 0.68 1.7 0 0 Z " fill="#3830AF" transform="translate(262,306)"/>
<path d="M0 0 C5.24972347 4.10037573 9.20962911 8.52964787 13 14 C7.34480694 11.31936795 3.80367121 6.86024654 0 2 C0 1.34 0 0.68 0 0 Z " fill="#342EA7" transform="translate(187,250)"/>
<path d="M0 0 C0.33 0 0.66 0 1 0 C1.23863636 12.17045455 1.23863636 12.17045455 -2 18 C-2.33 18 -2.66 18 -3 18 C-2.41509121 11.85845775 -1.45933748 5.99320151 0 0 Z " fill="#3E33A9" transform="translate(252,214)"/>
<path d="M0 0 C0.99 0.33 1.98 0.66 3 1 C2.67 2.093125 2.34 3.18625 2 4.3125 C0.86913351 7.84578884 0.86913351 7.84578884 1 11 C0.01 11 -0.98 11 -2 11 C-2.33 9.68 -2.66 8.36 -3 7 C-2.34 7 -1.68 7 -1 7 C-0.67 4.69 -0.34 2.38 0 0 Z " fill="#342DC8" transform="translate(221,307)"/>
<path d="M0 0 C1.134375 0.020625 2.26875 0.04125 3.4375 0.0625 C3.4375 0.3925 3.4375 0.7225 3.4375 1.0625 C1.4575 1.0625 -0.5225 1.0625 -2.5625 1.0625 C-2.2325 4.0325 -1.9025 7.0025 -1.5625 10.0625 C-2.5525 10.0625 -3.5425 10.0625 -4.5625 10.0625 C-4.58939216 8.58343108 -4.60884621 7.10422517 -4.625 5.625 C-4.63660156 4.80128906 -4.64820313 3.97757812 -4.66015625 3.12890625 C-4.49001835 -0.47121162 -3.73687179 0.06555915 0 0 Z " fill="#3832B4" transform="translate(209.5625,305.9375)"/>
<path d="M0 0 C0.66 0 1.32 0 2 0 C1.36934845 5.7809725 0.34844868 11.3443706 -1 17 C-1.33 17 -1.66 17 -2 17 C-2.11432848 11.62656167 -1.92249238 6.30717841 -1 1 C-0.67 0.67 -0.34 0.34 0 0 Z " fill="#3E36AE" transform="translate(299,176)"/>
<path d="M0 0 C0.99 0 1.98 0 3 0 C3.66 2.31 4.32 4.62 5 7 C4.01 6.67 3.02 6.34 2 6 C2 4.68 2 3.36 2 2 C1.34 2 0.68 2 0 2 C0 3.32 0 4.64 0 6 C-1.32 5.67 -2.64 5.34 -4 5 C-4 4.34 -4 3.68 -4 3 C-3.01 3 -2.02 3 -1 3 C-0.67 2.01 -0.34 1.02 0 0 Z " fill="#312E9C" transform="translate(237,317)"/>
<path d="M0 0 C0.33 0.66 0.66 1.32 1 2 C1.99 2 2.98 2 4 2 C4.33 3.65 4.66 5.3 5 7 C3.02 7.33 1.04 7.66 -1 8 C-0.67 5.36 -0.34 2.72 0 0 Z " fill="#3B35BA" transform="translate(162,308)"/>
<path d="M0 0 C0.33 0.66 0.66 1.32 1 2 C1.66 2 2.32 2 3 2 C3 2.66 3 3.32 3 4 C2.01 4.66 1.02 5.32 0 6 C-0.33 6.66 -0.66 7.32 -1 8 C-1.99 7.67 -2.98 7.34 -4 7 C-3.67 5.02 -3.34 3.04 -3 1 C-2.01 0.67 -1.02 0.34 0 0 Z " fill="#322BC7" transform="translate(266,313)"/>
<path d="M0 0 C0.66 0 1.32 0 2 0 C1.34 3.3 0.68 6.6 0 10 C-0.66 10 -1.32 10 -2 10 C-2 7.69 -2 5.38 -2 3 C-1.34 3 -0.68 3 0 3 C0 2.01 0 1.02 0 0 Z " fill="#362CC4" transform="translate(295,307)"/>
<path d="M0 0 C0.66666667 1.33333333 1.33333333 2.66666667 2 4 C2.37125 4.5775 2.7425 5.155 3.125 5.75 C4.46160487 9.18698395 4.12238184 12.32854467 4 16 C0.78235549 11.17353323 -0.36261136 5.80178176 0 0 Z " fill="#3B34A3" transform="translate(289,233)"/>
<path d="M0 0 C0.66 0.66 1.32 1.32 2 2 C1.625 4.125 1.625 4.125 1 6 C-1.96175123 5.38722388 -3.38058783 4.74627478 -6 3 C-4.02 2.01 -2.04 1.02 0 0 Z " fill="#352DC7" transform="translate(320,217)"/>
<path d="M0 0 C2.475 0.495 2.475 0.495 5 1 C5.28875 1.9075 5.5775 2.815 5.875 3.75 C6.76531776 6.32202908 7.71494413 8.61346766 9 11 C5.36440339 7.56638098 2.63886654 4.2026393 0 0 Z " fill="#3932A5" transform="translate(249,149)"/>
<path d="M0 0 C0.99 0.33 1.98 0.66 3 1 C2.67 1.66 2.34 2.32 2 3 C1.34 3 0.68 3 0 3 C-0.33 4.98 -0.66 6.96 -1 9 C-1.33 8.34 -1.66 7.68 -2 7 C-2.66 7 -3.32 7 -4 7 C-4 5.35 -4 3.7 -4 2 C-3.67 2.66 -3.34 3.32 -3 4 C-2.34 4 -1.68 4 -1 4 C-0.67 2.68 -0.34 1.36 0 0 Z " fill="#2C27AB" transform="translate(267,307)"/>
<path d="M0 0 C0 0.99 0 1.98 0 3 C-2.64 3.33 -5.28 3.66 -8 4 C-8 2.68 -8 1.36 -8 0 C-2.25 -1.125 -2.25 -1.125 0 0 Z M-7 1 C-7 1.66 -7 2.32 -7 3 C-5.68 2.67 -4.36 2.34 -3 2 C-4.32 1.67 -5.64 1.34 -7 1 Z " fill="#2B28A1" transform="translate(231,309)"/>
<path d="M0 0 C0.66 0 1.32 0 2 0 C1.54917531 1.46067199 1.08906463 2.91848032 0.625 4.375 C0.36976563 5.18710937 0.11453125 5.99921875 -0.1484375 6.8359375 C-1 9 -1 9 -3 11 C-4 8 -4 8 -3.22265625 5.95703125 C-2.83980469 5.24933594 -2.45695313 4.54164063 -2.0625 3.8125 C-1.68222656 3.09707031 -1.30195313 2.38164062 -0.91015625 1.64453125 C-0.60980469 1.10183594 -0.30945313 0.55914062 0 0 Z " fill="#37309E" transform="translate(199,270)"/>
<path d="M0 0 C0.33 0.99 0.66 1.98 1 3 C1.99 3.33 2.98 3.66 4 4 C4 4.99 4 5.98 4 7 C2.35 7 0.7 7 -1 7 C-0.67 4.69 -0.34 2.38 0 0 Z " fill="#352CAC" transform="translate(218,315)"/>
<path d="M0 0 C0.33 0 0.66 0 1 0 C1 1.65 1 3.3 1 5 C-0.98 5.99 -0.98 5.99 -3 7 C-3 6.01 -3 5.02 -3 4 C-3.66 3.67 -4.32 3.34 -5 3 C-4.34 2.34 -3.68 1.68 -3 1 C-2.01 1.66 -1.02 2.32 0 3 C0 2.01 0 1.02 0 0 Z " fill="#3832A5" transform="translate(158,310)"/>
<path d="M0 0 C1.875 0.3125 1.875 0.3125 4 1 C6.56687367 4.8503105 5.83288724 6.58569763 5 11 C4.9175 10.484375 4.835 9.96875 4.75 9.4375 C3.67859775 5.95544268 1.86476395 3.12799115 0 0 Z " fill="#3A30AF" transform="translate(258,161)"/>
<path d="M0 0 C-0.62759865 2.92879371 -1.58622659 5.36095629 -3 8 C-3.66 6.02 -4.32 4.04 -5 2 C-2 0 -2 0 0 0 Z " fill="#2E27C6" transform="translate(215,313)"/>
<path d="M0 0 C2.64 0 5.28 0 8 0 C5.60490662 2.89932357 3.68754757 3.50168276 0 4 C0 2.68 0 1.36 0 0 Z " fill="#3C2FC4" transform="translate(311,314)"/>
<path d="M0 0 C0.66 0.33 1.32 0.66 2 1 C1.34 2.65 0.68 4.3 0 6 C-1.32 5.67 -2.64 5.34 -4 5 C-3.67 4.01 -3.34 3.02 -3 2 C-2.01 2 -1.02 2 0 2 C0 1.34 0 0.68 0 0 Z " fill="#352BC4" transform="translate(301,311)"/>
<path d="M0 0 C1.65 0 3.3 0 5 0 C5.33 0.66 5.66 1.32 6 2 C4 4 4 4 1.375 4.125 C0.59125 4.08375 -0.1925 4.0425 -1 4 C-0.67 2.68 -0.34 1.36 0 0 Z " fill="#3B2FCB" transform="translate(254,307)"/>
<path d="M0 0 C1.98 0.66 3.96 1.32 6 2 C6 2.66 6 3.32 6 4 C6.66 4.33 7.32 4.66 8 5 C7.67 5.99 7.34 6.98 7 8 C5.83035398 6.8572081 4.66435444 5.71068285 3.5 4.5625 C2.8503125 3.92441406 2.200625 3.28632813 1.53125 2.62890625 C0 1 0 1 0 0 Z " fill="#3A30A8" transform="translate(216,271)"/>
<path d="M0 0 C0.98120464 3.05263664 0.98120464 4.94736336 0 8 C-1.9375 7.625 -1.9375 7.625 -4 7 C-4.33 6.34 -4.66 5.68 -5 5 C-4.360625 4.731875 -3.72125 4.46375 -3.0625 4.1875 C-0.66868314 3.11332248 -0.66868314 3.11332248 0 0 Z " fill="#3B31B2" transform="translate(244,225)"/>
<path d="M0 0 C0.66 0 1.32 0 2 0 C2.33 1.65 2.66 3.3 3 5 C1.35 5.33 -0.3 5.66 -2 6 C-1.34 4.02 -0.68 2.04 0 0 Z " fill="#3E36B3" transform="translate(157,270)"/>
<path d="M0 0 C0.66 0.33 1.32 0.66 2 1 C1.01 1.33 0.02 1.66 -1 2 C-1.33 3.65 -1.66 5.3 -2 7 C-2.33 6.01 -2.66 5.02 -3 4 C-3.99 3.67 -4.98 3.34 -6 3 C-4.03533587 1.93224776 -2.03144641 0.93446535 0 0 Z " fill="#3F36B4" transform="translate(297,229)"/>
<path d="M0 0 C2.91517292 1.07401108 4.77810176 1.77810176 7 4 C6.67 5.32 6.34 6.64 6 8 C4.02 5.36 2.04 2.72 0 0 Z " fill="#4038A6" transform="translate(203,256)"/>
<path d="" fill="#FFFFFF" transform="translate(0,0)"/>
<path d="" fill="#FFFFFF" transform="translate(0,0)"/>
<path d="" fill="#FFFFFF" transform="translate(0,0)"/>
<path d="" fill="#FFFFFF" transform="translate(0,0)"/>
<path d="" fill="#FFFFFF" transform="translate(0,0)"/>
<path d="" fill="#FFFFFF" transform="translate(0,0)"/>
<path d="" fill="#FFFFFF" transform="translate(0,0)"/>
<path d="" fill="#FFFFFF" transform="translate(0,0)"/>
<path d="" fill="#FFFFFF" transform="translate(0,0)"/>
<path d="" fill="#FFFFFF" transform="translate(0,0)"/>
<path d="" fill="#FFFFFF" transform="translate(0,0)"/>
<path d="" fill="#FF00FF" transform="translate(0,0)"/>
<path d="" fill="#FFFFFF" transform="translate(0,0)"/>
<path d="" fill="#FFFFFF" transform="translate(0,0)"/>
<path d="" fill="#FFFFFF" transform="translate(0,0)"/>
<path d="" fill="#FFFFFF" transform="translate(0,0)"/>
<path d="" fill="#FFFFFF" transform="translate(0,0)"/>
<path d="" fill="#FFFFFF" transform="translate(0,0)"/>
<path d="" fill="#FFFFFF" transform="translate(0,0)"/>
<path d="" fill="#FFFFFF" transform="translate(0,0)"/>
<path d="" fill="#FFFFFF" transform="translate(0,0)"/>
<path d="" fill="#FFFFFF" transform="translate(0,0)"/>
<path d="" fill="#FFFFFF" transform="translate(0,0)"/>
<path d="" fill="#FFFFFF" transform="translate(0,0)"/>
<path d="" fill="#FFFFFF" transform="translate(0,0)"/>
<path d="" fill="#FFFFFF" transform="translate(0,0)"/>
<path d="" fill="#FFFFFF" transform="translate(0,0)"/>
<path d="" fill="#FFFFFF" transform="translate(0,0)"/>
<path d="" fill="#FFFFFF" transform="translate(0,0)"/>
<path d="" fill="#FFFFFF" transform="translate(0,0)"/>
<path d="" fill="#FFFFFF" transform="translate(0,0)"/>
<path d="" fill="#FFFFFF" transform="translate(0,0)"/>
<path d="" fill="#FFFFFF" transform="translate(0,0)"/>
<path d="" fill="#FFFFFF" transform="translate(0,0)"/>
<path d="" fill="#FFFFFF" transform="translate(0,0)"/>
<path d="" fill="#FFFFFF" transform="translate(0,0)"/>
<path d="" fill="#FFFFFF" transform="translate(0,0)"/>
<path d="" fill="#FFFFFF" transform="translate(0,0)"/>
<path d="" fill="#FFFFFF" transform="translate(0,0)"/>
<path d="" fill="#FFFFFF" transform="translate(0,0)"/>
<path d="" fill="#FFFFFF" transform="translate(0,0)"/>
<path d="" fill="#FFFFFF" transform="translate(0,0)"/>
<path d="" fill="#FFFFFF" transform="translate(0,0)"/>
<path d="" fill="#FFFFFF" transform="translate(0,0)"/>
<path d="" fill="#FFFFFF" transform="translate(0,0)"/>
<path d="" fill="#FFFFFF" transform="translate(0,0)"/>
<path d="" fill="#FFFFFF" transform="translate(0,0)"/>
<path d="" fill="#FFFFFF" transform="translate(0,0)"/>
<path d="" fill="#FFFFFF" transform="translate(0,0)"/>
<path d="" fill="#FFFFFF" transform="translate(0,0)"/>
<path d="" fill="#FFFFFF" transform="translate(0,0)"/>
<path d="" fill="#FFFFFF" transform="translate(0,0)"/>
<path d="" fill="#FFFFFF" transform="translate(0,0)"/>
<path d="" fill="#FFFFFF" transform="translate(0,0)"/>
<path d="" fill="#FFFFFF" transform="translate(0,0)"/>
<path d="" fill="#FFFFFF" transform="translate(0,0)"/>
<path d="" fill="#FFFFFF" transform="translate(0,0)"/>
<path d="" fill="#FFFFFF" transform="translate(0,0)"/>
<path d="" fill="#FFFFFF" transform="translate(0,0)"/>
<path d="" fill="#FFFFFF" transform="translate(0,0)"/>
<path d="" fill="#FFFFFF" transform="translate(0,0)"/>
<path d="" fill="#FFFFFF" transform="translate(0,0)"/>
<path d="" fill="#FFFFFF" transform="translate(0,0)"/>
<path d="" fill="#FFFFFF" transform="translate(0,0)"/>
<path d="" fill="#FFFFFF" transform="translate(0,0)"/>
<path d="" fill="#FFFFFF" transform="translate(0,0)"/>
<path d="" fill="#FFFFFF" transform="translate(0,0)"/>
<path d="" fill="#FFFFFF" transform="translate(0,0)"/>
<path d="" fill="#FFFFFF" transform="translate(0,0)"/>
<path d="" fill="#FFFFFF" transform="translate(0,0)"/>
<path d="" fill="#FFFFFF" transform="translate(0,0)"/>
<path d="" fill="#FFFFFF" transform="translate(0,0)"/>
<path d="" fill="#FFFFFF" transform="translate(0,0)"/>
<path d="" fill="#FFFFFF" transform="translate(0,0)"/>
<path d="" fill="#FFFFFF" transform="translate(0,0)"/>
<path d="" fill="#FFFFFF" transform="translate(0,0)"/>
<path d="" fill="#FFFFFF" transform="translate(0,0)"/>
<path d="" fill="#FFFFFF" transform="translate(0,0)"/>
<path d="" fill="#FFFFFF" transform="translate(0,0)"/>
<path d="" fill="#FFFFFF" transform="translate(0,0)"/>
<path d="" fill="#FFFFFF" transform="translate(0,0)"/>
<path d="" fill="#FFFFFF" transform="translate(0,0)"/>
<path d="" fill="#FFFFFF" transform="translate(0,0)"/>
<path d="" fill="#FFFFFF" transform="translate(0,0)"/>
<path d="" fill="#FFFFFF" transform="translate(0,0)"/>
<path d="" fill="#FFFFFF" transform="translate(0,0)"/>
<path d="" fill="#FFFFFF" transform="translate(0,0)"/>
</svg>
